<?xml version="1.0" ?><!DOCTYPE svg  PUBLIC '-//W3C//DTD SVG 1.1//EN'  'http://www.w3.org/Graphics/SVG/1.1/DTD/svg11.dtd'><svg enable-background="new 0 0 100 100" height="100px" id="Layer_1" version="1.1" viewBox="0 0 100 100" width="100px" xml:space="preserve" xmlns="http://www.w3.org/2000/svg" xmlns:xlink="http://www.w3.org/1999/xlink"><g><g><radialGradient cx="-2.7715" cy="79.7197" gradientTransform="matrix(1.374 0 0 1.3606 53.5928 -58.2988)" gradientUnits="userSpaceOnUse" id="SVGID_1_" r="29.1121"><stop offset="0.3371" style="stop-color:#54585D"/><stop offset="0.4611" style="stop-color:#52565B"/><stop offset="0.5178" style="stop-color:#4B4F53"/><stop offset="0.5608" style="stop-color:#404347"/><stop offset="0.5969" style="stop-color:#2F3235"/><stop offset="0.6283" style="stop-color:#1A1C1D"/><stop offset="0.6566" style="stop-color:#010101"/><stop offset="0.6573" style="stop-color:#000000"/><stop offset="0.736" style="stop-color:#797E83"/><stop offset="0.9382" style="stop-color:#18171A"/><stop offset="1" style="stop-color:#808184"/></radialGradient><path d="M49.787,10.559c-22.094,0-40,17.733-40,39.611c0,21.872,17.907,39.609,40,39.609    c22.09,0,40-17.737,40-39.609C89.786,28.292,71.877,10.559,49.787,10.559z M49.787,76.94c-14.935,0-27.04-11.987-27.04-26.771    c0-14.79,12.105-26.778,27.04-26.778c14.934,0,27.04,11.988,27.04,26.778C76.826,64.953,64.721,76.94,49.787,76.94z" fill="url(#SVGID_1_)"/><path d="M53.57,30.194l-1.662,8.218c2.568,0.512,4.907,1.855,6.627,3.81l6.385-5.501    C61.969,33.375,57.965,31.073,53.57,30.194z" fill="none"/><path d="M37.893,51.895l-8.354,1.326c0.714,4.386,2.882,8.438,6.144,11.482l5.799-6.099    C39.574,56.826,38.309,54.458,37.893,51.895z" fill="none"/><path d="M46.616,61.562l-2.128,8.108c4.346,1.112,8.961,0.771,13.091-0.966L54.26,61    C51.851,62.016,49.152,62.21,46.616,61.562z" fill="none"/><path d="M59.705,56.506l7.028,4.662c2.491-3.694,3.69-8.119,3.396-12.55l-8.441,0.552    C61.861,51.762,61.158,54.351,59.705,56.506z" fill="none"/><path d="M40.944,31.947c-4.022,1.963-7.294,5.205-9.277,9.188l7.592,3.697c1.155-2.329,3.066-4.22,5.42-5.37    L40.944,31.947z" fill="none"/><radialGradient cx="-2.7729" cy="79.7178" gradientTransform="matrix(1.374 0 0 1.3606 53.5928 -58.2988)" gradientUnits="userSpaceOnUse" id="SVGID_2_" r="18.4033"><stop offset="0.5843" style="stop-color:#EAEBEC"/><stop offset="0.9382" style="stop-color:#65686C"/><stop offset="1" style="stop-color:#EAEBEC"/></radialGradient><path d="M49.787,25.126c-13.968,0-25.29,11.213-25.29,25.038c0,13.828,11.322,25.041,25.29,25.041    c13.965,0,25.284-11.213,25.284-25.041C75.07,36.339,63.752,25.126,49.787,25.126z M35.683,64.703    c-3.262-3.045-5.43-7.097-6.144-11.482l8.354-1.326c0.416,2.563,1.681,4.932,3.589,6.71L35.683,64.703z M39.259,44.832    l-7.592-3.697c1.983-3.982,5.254-7.225,9.277-9.188l3.735,7.515C42.326,40.612,40.414,42.503,39.259,44.832z M44.487,69.67    l2.128-8.108c2.536,0.648,5.235,0.454,7.644-0.562l3.318,7.704C53.448,70.441,48.833,70.782,44.487,69.67z M51.908,38.412    l1.662-8.218c4.395,0.879,8.398,3.181,11.35,6.526l-6.385,5.501C56.815,40.268,54.477,38.924,51.908,38.412z M66.733,61.168    l-7.028-4.662c1.453-2.155,2.156-4.744,1.982-7.336l8.441-0.552C70.424,53.049,69.225,57.474,66.733,61.168z" fill="url(#SVGID_2_)"/><linearGradient gradientUnits="userSpaceOnUse" id="SVGID_3_" x1="29.6895" x2="70.4574" y1="68.4229" y2="31.3917"><stop offset="0" style="stop-color:#9EA6AF"/><stop offset="0.3764" style="stop-color:#FFFFFF"/><stop offset="0.4019" style="stop-color:#F4F4F6"/><stop offset="0.4944" style="stop-color:#CFD2D7"/><stop offset="0.5809" style="stop-color:#B5B9C2"/><stop offset="0.6584" style="stop-color:#A6AAB5"/><stop offset="0.7191" style="stop-color:#A0A5B0"/><stop offset="1" style="stop-color:#F7F7F8"/></linearGradient><path d="M49.787,23.416c-14.919,0-27.017,11.976-27.017,26.748c0,14.778,12.098,26.756,27.017,26.756    c14.92,0,27.015-11.978,27.015-26.756C76.802,35.392,64.707,23.416,49.787,23.416z M49.787,75.205    c-13.968,0-25.29-11.213-25.29-25.041c0-13.825,11.322-25.038,25.29-25.038c13.965,0,25.284,11.213,25.284,25.038    C75.07,63.992,63.752,75.205,49.787,75.205z" fill="url(#SVGID_3_)"/><linearGradient gradientUnits="userSpaceOnUse" id="SVGID_4_" x1="30.8442" x2="39.7857" y1="60.4346" y2="52.3126"><stop offset="0" style="stop-color:#101116"/><stop offset="1" style="stop-color:#6F747C"/></linearGradient><path d="M41.927,58.139c-1.795-1.68-3.002-3.93-3.399-6.342l-0.1-0.632l-0.636,0.098l-8.995,1.428    l0.104,0.632c0.729,4.509,2.985,8.717,6.341,11.85l0.472,0.439l6.683-7.033L41.927,58.139z M35.683,64.703    c-3.262-3.045-5.43-7.097-6.144-11.482l8.354-1.326c0.416,2.563,1.681,4.932,3.589,6.71L35.683,64.703z" fill="url(#SVGID_4_)"/><linearGradient gradientUnits="userSpaceOnUse" id="SVGID_5_" x1="51.9609" x2="61.3032" y1="39.9116" y2="31.4257"><stop offset="0" style="stop-color:#101116"/><stop offset="1" style="stop-color:#6F747C"/></linearGradient><path d="M65.406,36.3c-3.025-3.441-7.189-5.834-11.711-6.731l-0.638-0.127l-0.125,0.63l-1.791,8.841    l0.638,0.126c2.422,0.484,4.65,1.763,6.27,3.608l0.428,0.479l7.355-6.339L65.406,36.3z M58.535,42.222    c-1.72-1.954-4.059-3.298-6.627-3.81l1.662-8.218c4.395,0.879,8.398,3.181,11.35,6.526L58.535,42.222z" fill="url(#SVGID_5_)"/><linearGradient gradientUnits="userSpaceOnUse" id="SVGID_6_" x1="60.3955" x2="71.5576" y1="58.5518" y2="48.4128"><stop offset="0" style="stop-color:#101116"/><stop offset="1" style="stop-color:#6F747C"/></linearGradient><path d="M70.774,48.574l-0.044-0.641l-0.645,0.04l-9.087,0.604l0.042,0.637    c0.162,2.44-0.504,4.902-1.879,6.933l-0.358,0.535l8.105,5.375l0.361-0.53C69.832,57.729,71.078,53.13,70.774,48.574z     M66.733,61.168l-7.028-4.662c1.453-2.155,2.156-4.744,1.982-7.336l8.441-0.552C70.424,53.049,69.225,57.474,66.733,61.168z" fill="url(#SVGID_6_)"/><linearGradient gradientUnits="userSpaceOnUse" id="SVGID_7_" x1="33.2271" x2="44.3683" y1="44.2173" y2="34.0972"><stop offset="0" style="stop-color:#101116"/><stop offset="1" style="stop-color:#6F747C"/></linearGradient><path d="M41.242,31.087l-0.579,0.286c-4.141,2.02-7.542,5.383-9.578,9.479l-0.287,0.576l8.755,4.26    l0.286-0.574c1.091-2.192,2.911-3.998,5.127-5.076l0.58-0.281L41.242,31.087z M39.259,44.832l-7.592-3.697    c1.983-3.982,5.254-7.225,9.277-9.188l3.735,7.515C42.326,40.612,40.414,42.503,39.259,44.832z" fill="url(#SVGID_7_)"/><linearGradient gradientUnits="userSpaceOnUse" id="SVGID_8_" x1="44.9292" x2="56.1389" y1="71.5957" y2="61.4135"><stop offset="0" style="stop-color:#101116"/><stop offset="1" style="stop-color:#6F747C"/></linearGradient><path d="M54.603,60.154l-0.595,0.254c-2.273,0.955-4.84,1.146-7.231,0.533l-0.627-0.162l-2.449,9.348    l0.627,0.164c4.463,1.146,9.256,0.79,13.501-0.997l0.598-0.254L54.603,60.154z M44.487,69.67l2.128-8.108    c2.536,0.648,5.235,0.454,7.644-0.562l3.318,7.704C53.448,70.441,48.833,70.782,44.487,69.67z" fill="url(#SVGID_8_)"/><radialGradient cx="-2.9702" cy="79.3125" fx="-3.9347" fy="78.5611" gradientTransform="matrix(1.374 0 0 1.3606 53.5928 -58.2988)" gradientUnits="userSpaceOnUse" id="SVGID_9_" r="2.6191"><stop offset="0" style="stop-color:#848C94"/><stop offset="1" style="stop-color:#111016"/></radialGradient><path d="M53.111,49.612c0,1.972-1.609,3.565-3.596,3.565c-1.993,0-3.602-1.594-3.602-3.565    c0-1.966,1.609-3.562,3.602-3.562C51.502,46.051,53.111,47.646,53.111,49.612z" fill="url(#SVGID_9_)"/><radialGradient cx="-2.6631" cy="83.5293" gradientTransform="matrix(1.374 0 0 1.3606 53.5928 -58.2988)" gradientUnits="userSpaceOnUse" id="SVGID_10_" r="1.1016"><stop offset="0" style="stop-color:#9EA6AF"/><stop offset="1" style="stop-color:#111016"/></radialGradient><ellipse cx="49.935" cy="55.353" fill="url(#SVGID_10_)" rx="1.515" ry="1.497"/><radialGradient cx="-6.0361" cy="76.3633" gradientTransform="matrix(1.374 0 0 1.3606 53.5928 -58.2988)" gradientUnits="userSpaceOnUse" id="SVGID_11_" r="1.1013"><stop offset="0" style="stop-color:#9EA6AF"/><stop offset="1" style="stop-color:#111016"/></radialGradient><ellipse cx="45.3" cy="45.604" fill="url(#SVGID_11_)" rx="1.515" ry="1.496"/><radialGradient cx="-983.0942" cy="547.9307" gradientTransform="matrix(1.5591 0 0 1.5438 1585.3096 -801.2061)" gradientUnits="userSpaceOnUse" id="SVGID_12_" r="0.9709"><stop offset="0" style="stop-color:#9EA6AF"/><stop offset="1" style="stop-color:#111016"/></radialGradient><path d="M54.109,44.683c0,0.83-0.675,1.501-1.51,1.501s-1.516-0.671-1.516-1.501    c0-0.825,0.681-1.499,1.516-1.499S54.109,43.857,54.109,44.683z" fill="url(#SVGID_12_)"/><radialGradient cx="1.1831" cy="80.4629" gradientTransform="matrix(1.374 0 0 1.3606 53.5928 -58.2988)" gradientUnits="userSpaceOnUse" id="SVGID_13_" r="1.1018"><stop offset="0" style="stop-color:#9EA6AF"/><stop offset="1" style="stop-color:#111016"/></radialGradient><path d="M56.733,51.18c0,0.824-0.681,1.5-1.515,1.5c-0.839,0-1.514-0.676-1.514-1.5    c0-0.828,0.675-1.498,1.514-1.498C56.053,49.682,56.733,50.352,56.733,51.18z" fill="url(#SVGID_13_)"/><radialGradient cx="-6.5938" cy="81.3379" gradientTransform="matrix(1.374 0 0 1.3606 53.5928 -58.2988)" gradientUnits="userSpaceOnUse" id="SVGID_14_" r="1.1018"><stop offset="0" style="stop-color:#9EA6AF"/><stop offset="1" style="stop-color:#111016"/></radialGradient><path d="M46.048,52.371c0,0.827-0.677,1.499-1.513,1.499c-0.838,0-1.515-0.672-1.515-1.499    c0-0.834,0.677-1.5,1.515-1.5C45.371,50.871,46.048,51.537,46.048,52.371z" fill="url(#SVGID_14_)"/></g><g><radialGradient cx="-2.7715" cy="79.1445" gradientTransform="matrix(1.374 0 0 1.3606 53.5928 -58.2988)" gradientUnits="userSpaceOnUse" id="SVGID_15_" r="29.1111"><stop offset="0.3371" style="stop-color:#54585D"/><stop offset="0.4611" style="stop-color:#52565B"/><stop offset="0.5178" style="stop-color:#4B4F53"/><stop offset="0.5608" style="stop-color:#404347"/><stop offset="0.5969" style="stop-color:#2F3235"/><stop offset="0.6283" style="stop-color:#1A1C1D"/><stop offset="0.6566" style="stop-color:#010101"/><stop offset="0.6573" style="stop-color:#000000"/><stop offset="0.736" style="stop-color:#797E83"/><stop offset="0.9382" style="stop-color:#18171A"/><stop offset="1" style="stop-color:#808184"/></radialGradient><path d="M49.787,9.779c-22.094,0-40,17.73-40,39.608c0,21.87,17.907,39.606,40,39.606    c22.09,0,40-17.736,40-39.606C89.786,27.51,71.877,9.779,49.787,9.779z M49.787,76.159c-14.935,0-27.04-11.989-27.04-26.771    c0-14.788,12.105-26.778,27.04-26.778c14.934,0,27.04,11.99,27.04,26.778C76.826,64.17,64.721,76.159,49.787,76.159z" fill="url(#SVGID_15_)"/><path d="M53.57,29.413l-1.662,8.218c2.568,0.512,4.907,1.855,6.627,3.81l6.385-5.5    C61.969,32.594,57.965,30.291,53.57,29.413z" fill="none"/><path d="M37.893,51.112l-8.354,1.328c0.714,4.386,2.882,8.437,6.144,11.482l5.799-6.1    C39.574,56.045,38.309,53.675,37.893,51.112z" fill="none"/><path d="M46.616,60.782l-2.128,8.105c4.346,1.112,8.961,0.771,13.091-0.965l-3.318-7.704    C51.851,61.233,49.152,61.432,46.616,60.782z" fill="none"/><path d="M59.705,55.728l7.028,4.66c2.491-3.696,3.69-8.123,3.396-12.554l-8.441,0.556    C61.861,50.981,61.158,53.566,59.705,55.728z" fill="none"/><path d="M40.944,31.167c-4.022,1.961-7.294,5.202-9.277,9.188l7.592,3.697c1.155-2.332,3.066-4.221,5.42-5.372    L40.944,31.167z" fill="none"/><radialGradient cx="-2.7729" cy="79.1436" gradientTransform="matrix(1.374 0 0 1.3606 53.5928 -58.2988)" gradientUnits="userSpaceOnUse" id="SVGID_16_" r="18.4033"><stop offset="0.5843" style="stop-color:#EAEBEC"/><stop offset="0.9382" style="stop-color:#65686C"/><stop offset="1" style="stop-color:#EAEBEC"/></radialGradient><path d="M49.787,24.346c-13.968,0-25.29,11.209-25.29,25.038c0,13.828,11.322,25.04,25.29,25.04    c13.965,0,25.284-11.212,25.284-25.04C75.07,35.555,63.752,24.346,49.787,24.346z M35.683,63.923    c-3.262-3.046-5.43-7.097-6.144-11.482l8.354-1.328c0.416,2.563,1.681,4.933,3.589,6.711L35.683,63.923z M39.259,44.053    l-7.592-3.697c1.983-3.986,5.254-7.228,9.277-9.188l3.735,7.514C42.326,39.832,40.414,41.721,39.259,44.053z M44.487,68.888    l2.128-8.105c2.536,0.649,5.235,0.451,7.644-0.563l3.318,7.704C53.448,69.659,48.833,70,44.487,68.888z M51.908,37.631    l1.662-8.218c4.395,0.878,8.398,3.181,11.35,6.527l-6.385,5.5C56.815,39.486,54.477,38.143,51.908,37.631z M66.733,60.388    l-7.028-4.66c1.453-2.161,2.156-4.746,1.982-7.338l8.441-0.556C70.424,52.265,69.225,56.691,66.733,60.388z" fill="url(#SVGID_16_)"/><linearGradient gradientUnits="userSpaceOnUse" id="SVGID_17_" x1="29.6895" x2="70.4579" y1="67.6406" y2="30.609"><stop offset="0" style="stop-color:#9EA6AF"/><stop offset="0.3764" style="stop-color:#FFFFFF"/><stop offset="0.4019" style="stop-color:#F4F4F6"/><stop offset="0.4944" style="stop-color:#CFD2D7"/><stop offset="0.5809" style="stop-color:#B5B9C2"/><stop offset="0.6584" style="stop-color:#A6AAB5"/><stop offset="0.7191" style="stop-color:#A0A5B0"/><stop offset="1" style="stop-color:#F7F7F8"/></linearGradient><path d="M49.787,22.633c-14.919,0-27.017,11.978-27.017,26.751c0,14.777,12.098,26.755,27.017,26.755    c14.92,0,27.015-11.978,27.015-26.755C76.802,34.61,64.707,22.633,49.787,22.633z M49.787,74.424    c-13.968,0-25.29-11.212-25.29-25.04c0-13.829,11.322-25.038,25.29-25.038c13.965,0,25.284,11.209,25.284,25.038    C75.07,63.212,63.752,74.424,49.787,74.424z" fill="url(#SVGID_17_)"/><linearGradient gradientUnits="userSpaceOnUse" id="SVGID_18_" x1="30.8452" x2="39.7878" y1="59.6523" y2="51.5294"><stop offset="0" style="stop-color:#101116"/><stop offset="1" style="stop-color:#6F747C"/></linearGradient><path d="M41.927,57.355c-1.795-1.677-3.002-3.931-3.399-6.342l-0.1-0.635l-0.636,0.102l-8.995,1.43    l0.104,0.634c0.729,4.509,2.985,8.715,6.341,11.844l0.472,0.442l6.683-7.029L41.927,57.355z M35.683,63.923    c-3.262-3.046-5.43-7.097-6.144-11.482l8.354-1.328c0.416,2.563,1.681,4.933,3.589,6.711L35.683,63.923z" fill="url(#SVGID_18_)"/><linearGradient gradientUnits="userSpaceOnUse" id="SVGID_19_" x1="51.96" x2="61.3024" y1="39.1299" y2="30.6437"><stop offset="0" style="stop-color:#101116"/><stop offset="1" style="stop-color:#6F747C"/></linearGradient><path d="M65.406,35.519c-3.025-3.44-7.189-5.834-11.711-6.732l-0.638-0.127l-0.125,0.633l-1.791,8.84    l0.638,0.127c2.422,0.483,4.65,1.761,6.27,3.604l0.428,0.482l7.355-6.343L65.406,35.519z M58.535,41.44    c-1.72-1.954-4.059-3.298-6.627-3.81l1.662-8.218c4.395,0.878,8.398,3.181,11.35,6.527L58.535,41.44z" fill="url(#SVGID_19_)"/><linearGradient gradientUnits="userSpaceOnUse" id="SVGID_20_" x1="60.3945" x2="71.5553" y1="57.7676" y2="47.6298"><stop offset="0" style="stop-color:#101116"/><stop offset="1" style="stop-color:#6F747C"/></linearGradient><path d="M70.774,47.792l-0.044-0.639l-0.645,0.038l-9.087,0.603l0.042,0.641    c0.162,2.439-0.504,4.901-1.879,6.932L58.804,55.9l8.105,5.373l0.361-0.53C69.832,56.945,71.078,52.35,70.774,47.792z     M66.733,60.388l-7.028-4.66c1.453-2.161,2.156-4.746,1.982-7.338l8.441-0.556C70.424,52.265,69.225,56.691,66.733,60.388z" fill="url(#SVGID_20_)"/><linearGradient gradientUnits="userSpaceOnUse" id="SVGID_21_" x1="33.2266" x2="44.3673" y1="43.4355" y2="33.3159"><stop offset="0" style="stop-color:#101116"/><stop offset="1" style="stop-color:#6F747C"/></linearGradient><path d="M41.242,30.307l-0.579,0.285c-4.141,2.019-7.542,5.381-9.578,9.479l-0.287,0.576l8.755,4.261    l0.286-0.574c1.091-2.192,2.911-3.995,5.127-5.078l0.58-0.281L41.242,30.307z M39.259,44.053l-7.592-3.697    c1.983-3.986,5.254-7.228,9.277-9.188l3.735,7.514C42.326,39.832,40.414,41.721,39.259,44.053z" fill="url(#SVGID_21_)"/><linearGradient gradientUnits="userSpaceOnUse" id="SVGID_22_" x1="44.9277" x2="56.1383" y1="70.8145" y2="60.6315"><stop offset="0" style="stop-color:#101116"/><stop offset="1" style="stop-color:#6F747C"/></linearGradient><path d="M54.603,59.373l-0.595,0.254c-2.273,0.956-4.84,1.145-7.231,0.534l-0.627-0.163l-2.449,9.349    l0.627,0.16c4.463,1.146,9.256,0.794,13.501-0.992l0.598-0.257L54.603,59.373z M44.487,68.888l2.128-8.105    c2.536,0.649,5.235,0.451,7.644-0.563l3.318,7.704C53.448,69.659,48.833,70,44.487,68.888z" fill="url(#SVGID_22_)"/><radialGradient cx="-2.9702" cy="78.7373" fx="-3.9348" fy="77.9857" gradientTransform="matrix(1.374 0 0 1.3606 53.5928 -58.2988)" gradientUnits="userSpaceOnUse" id="SVGID_23_" r="2.6196"><stop offset="0" style="stop-color:#848C94"/><stop offset="1" style="stop-color:#111016"/></radialGradient><path d="M53.111,48.831c0,1.971-1.609,3.566-3.596,3.566c-1.993,0-3.602-1.596-3.602-3.566    c0-1.967,1.609-3.564,3.602-3.564C51.502,45.267,53.111,46.864,53.111,48.831z" fill="url(#SVGID_23_)"/><radialGradient cx="-2.6631" cy="82.9561" gradientTransform="matrix(1.374 0 0 1.3606 53.5928 -58.2988)" gradientUnits="userSpaceOnUse" id="SVGID_24_" r="1.1016"><stop offset="0" style="stop-color:#9EA6AF"/><stop offset="1" style="stop-color:#111016"/></radialGradient><path d="M51.449,54.568c0,0.83-0.676,1.502-1.515,1.502c-0.838,0-1.515-0.672-1.515-1.502    c0-0.825,0.677-1.493,1.515-1.493C50.773,53.075,51.449,53.743,51.449,54.568z" fill="url(#SVGID_24_)"/><radialGradient cx="-6.0361" cy="75.7891" gradientTransform="matrix(1.374 0 0 1.3606 53.5928 -58.2988)" gradientUnits="userSpaceOnUse" id="SVGID_25_" r="1.1018"><stop offset="0" style="stop-color:#9EA6AF"/><stop offset="1" style="stop-color:#111016"/></radialGradient><ellipse cx="45.3" cy="44.82" fill="url(#SVGID_25_)" rx="1.515" ry="1.499"/><radialGradient cx="-983.0942" cy="547.4248" gradientTransform="matrix(1.5591 0 0 1.5438 1585.3096 -801.2061)" gradientUnits="userSpaceOnUse" id="SVGID_26_" r="0.9709"><stop offset="0" style="stop-color:#9EA6AF"/><stop offset="1" style="stop-color:#111016"/></radialGradient><path d="M54.109,43.9c0,0.833-0.675,1.503-1.51,1.503s-1.516-0.67-1.516-1.503    c0-0.826,0.681-1.497,1.516-1.497S54.109,43.074,54.109,43.9z" fill="url(#SVGID_26_)"/><radialGradient cx="1.1831" cy="79.8877" gradientTransform="matrix(1.374 0 0 1.3606 53.5928 -58.2988)" gradientUnits="userSpaceOnUse" id="SVGID_27_" r="1.1013"><stop offset="0" style="stop-color:#9EA6AF"/><stop offset="1" style="stop-color:#111016"/></radialGradient><ellipse cx="55.219" cy="50.396" fill="url(#SVGID_27_)" rx="1.514" ry="1.499"/><radialGradient cx="-6.5938" cy="80.7627" gradientTransform="matrix(1.374 0 0 1.3606 53.5928 -58.2988)" gradientUnits="userSpaceOnUse" id="SVGID_28_" r="1.1013"><stop offset="0" style="stop-color:#9EA6AF"/><stop offset="1" style="stop-color:#111016"/></radialGradient><ellipse cx="44.534" cy="51.588" fill="url(#SVGID_28_)" rx="1.514" ry="1.498"/></g></g></svg>